<svg xmlns="http://www.w3.org/2000/svg" viewBox="0 0 512 512" role="img" aria-label="MeowCare icon">
  <rect width="512" height="512" rx="112" fill="#f0672a"/>
  <circle cx="256" cy="270" r="122" fill="#fff3ea"/>
  <path d="M151 190 119 98l88 48M361 190l32-92-88 48" fill="#fff3ea" stroke="#2a2119" stroke-width="18" stroke-linejoin="round"/>
  <circle cx="214" cy="260" r="18" fill="#2a2119"/>
  <circle cx="298" cy="260" r="18" fill="#2a2119"/>
  <path d="M256 286c-18 0-28 12-16 23 7 7 25 7 32 0 12-11 2-23-16-23Z" fill="#f0672a"/>
  <path d="M235 330c11 13 31 13 42 0" fill="none" stroke="#2a2119" stroke-width="14" stroke-linecap="round"/>
  <path d="M142 292h54M316 292h54M144 330h58M310 330h58" stroke="#2a2119" stroke-width="10" stroke-linecap="round" opacity=".55"/>
</svg>
